<svg xmlns="http://www.w3.org/2000/svg" viewBox="0 0 100 100">
  <path fill="black" stroke="black" stroke-width="1.5" d="M21.25 47.5c1.379 0 2.5 1.121 2.5 2.5s-1.121 2.5-2.5 2.5-2.5-1.121-2.5-2.5 1.121-2.5 2.5-2.5zm30 32.5c-14.607 0-27.139-10.668-29.758-25.025 2.214-.107 4.041-1.651 4.579-3.725h7.679v-2.5h-7.679c-.537-2.072-2.364-3.616-4.577-3.725 2.612-14.138 15.395-25.025 29.756-25.025 5.391 0 11.04 2.028 16.786 6.026l1.428-2.052c-6.172-4.295-12.301-6.474-18.214-6.474-15.913 0-30.064 12.331-32.421 28.151-1.53.858-2.579 2.474-2.579 4.349s1.049 3.491 2.579 4.348c2.384 16.079 16.241 28.152 32.421 28.152 6.759 0 13.678-2.304 19.481-6.486l-1.462-2.028c-5.381 3.879-11.78 6.014-18.019 6.014zm-13.624-34.447c2.317.566 5.218.698 7.374.697 2.052 0 4.779-.119 7.036-.617l-5.655 11.308c-.086.173-.131.365-.131.559v5.566c-1.001.639-2.709 1.699-3.75 1.917v-7.483c0-.165-.033-.329-.096-.481zm7.374-4.303c5.031 0 7.718.755 8.551 1.25-.834.495-3.52 1.25-8.551 1.25-5.031 0-7.718-.755-8.551-1.25.834-.495 3.52-1.25 8.551-1.25zm-3.75 26.25h1.25c.054 0 .107-.004.16-.01 1.53-.199 3.476-1.381 5.18-2.474l.329-.21c.361-.23.581-.629.581-1.056v-5.955l6.949-13.895c.343-.399.551-.858.551-1.4 0-3.262-7.049-3.75-11.25-3.75-4.201 0-11.25.488-11.25 3.75 0 .458.15.855.4 1.209l5.85 14.041v8.5c0 .69.559 1.25 1.25 1.25zm36.25-1.25c1.379 0 2.5 1.121 2.5 2.5s-1.121 2.5-2.5 2.5-2.5-1.121-2.5-2.5 1.121-2.5 2.5-2.5zm0-37.5c1.379 0 2.5 1.121 2.5 2.5s-1.121 2.5-2.5 2.5-2.5-1.121-2.5-2.5 1.121-2.5 2.5-2.5zm2.5 18.75c1.379 0 2.5 1.121 2.5 2.5s-1.121 2.5-2.5 2.5-2.5-1.121-2.5-2.5 1.121-2.5 2.5-2.5zm-12.5 3.75h7.679c.557 2.15 2.499 3.75 4.821 3.75 2.757 0 5-2.243 5-5s-2.243-5-5-5c-2.323 0-4.264 1.6-4.821 3.75h-7.679v-16.25h5.179c.557 2.15 2.499 3.75 4.821 3.75 2.757 0 5-2.243 5-5s-2.243-5-5-5c-2.323 0-4.264 1.6-4.821 3.75h-6.429c-.691 0-1.25.56-1.25 1.25v17.5h-8.75v2.5h8.75v17.5c0 .69.559 1.25 1.25 1.25h6.429c.557 2.15 2.499 3.75 4.821 3.75 2.757 0 5-2.243 5-5s-2.243-5-5-5c-2.323 0-4.264 1.6-4.821 3.75h-5.179z"/>
</svg>
